<svg xmlns="http://www.w3.org/2000/svg" width="1200" height="630" viewBox="0 0 1200 630" font-family="Consolas, 'Courier New', monospace">
  <rect width="1200" height="630" fill="#1e1e1e"/>
  <!-- title bar -->
  <rect width="1200" height="44" fill="#3c3c3c"/>
  <rect x="450" y="8" width="300" height="28" rx="6" fill="#303030" stroke="#4d4d4d"/>
  <text x="600" y="27" fill="#cccccc" font-size="15" text-anchor="middle">nirupam — portfolio</text>
  <circle cx="1120" cy="22" r="6" fill="#5a5a5a"/><circle cx="1150" cy="22" r="6" fill="#5a5a5a"/><circle cx="1178" cy="22" r="6" fill="#5a5a5a"/>
  <!-- activity bar -->
  <rect y="44" width="64" height="556" fill="#333333"/>
  <rect y="44" width="3" height="60" fill="#ffffff"/>
  <g fill="#ffffff" opacity="0.9"><rect x="20" y="64" width="24" height="20" rx="2" fill="none" stroke="#fff" stroke-width="2"/></g>
  <g opacity="0.4" stroke="#fff" stroke-width="2" fill="none">
    <circle cx="32" cy="140" r="10"/>
    <circle cx="32" cy="210" r="10"/>
    <rect x="22" y="270" width="20" height="20" rx="2"/>
  </g>
  <!-- sidebar -->
  <rect x="64" y="44" width="256" height="556" fill="#252526"/>
  <text x="84" y="76" fill="#bbbbbb" font-size="13" letter-spacing="1">EXPLORER: PORTFOLIO</text>
  <g fill="#cccccc" font-size="15">
    <text x="100" y="112">about/</text>
    <text x="100" y="140" fill="#e2c08d">experience/</text>
    <text x="100" y="168" fill="#73c991">projects/</text>
    <text x="100" y="196">education/</text>
    <rect x="88" y="206" width="180" height="26" fill="#094771"/>
    <text x="100" y="224" fill="#ffffff">README.md</text>
    <text x="100" y="252">skills.json</text>
    <text x="100" y="280">resume.pdf</text>
  </g>
  <!-- tab bar -->
  <rect x="320" y="44" width="880" height="44" fill="#252526"/>
  <rect x="320" y="44" width="170" height="44" fill="#1e1e1e"/>
  <rect x="320" y="44" width="170" height="3" fill="#007acc"/>
  <text x="345" y="72" fill="#ffffff" font-size="15">README.md</text>
  <rect x="490" y="44" width="170" height="44" fill="#2d2d2d"/>
  <text x="510" y="72" fill="#8b8b8b" font-size="15">skills.json</text>
  <!-- editor content -->
  <g font-size="26" font-weight="bold">
    <text x="380" y="185" fill="#569cd6" font-size="52"># Nirupam Changmai</text>
    <text x="380" y="245" fill="#d4d4d4" font-weight="normal">Full-Stack Developer · AI Engineer</text>
    <text x="380" y="295" fill="#d4d4d4" font-weight="normal" font-size="22">Guwahati, Assam, India</text>
    <text x="380" y="365" fill="#6a9955" font-weight="normal" font-size="22">// React · Next.js · TypeScript · Node.js · Python</text>
    <text x="380" y="405" fill="#6a9955" font-weight="normal" font-size="22">// LLM integrations: OpenAI · Anthropic · Gemini</text>
    <text x="380" y="470" fill="#ce9178" font-weight="normal" font-size="22">"Ships production apps. Screen-prints textiles."</text>
    <text x="380" y="535" fill="#4ec9b0" font-weight="normal">const hireable = true;</text>
  </g>
  <g fill="#858585" font-size="20">
    <text x="340" y="185">1</text><text x="340" y="245">2</text><text x="340" y="295">3</text><text x="340" y="365">4</text><text x="340" y="405">5</text><text x="340" y="470">6</text><text x="340" y="535">7</text>
  </g>
  <!-- status bar -->
  <rect y="600" width="1200" height="30" fill="#007acc"/>
  <text x="20" y="620" fill="#ffffff" font-size="15">⎇ main   ✓ 0 errors   Ln 1, Col 1</text>
  <text x="1180" y="620" fill="#ffffff" font-size="15" text-anchor="end">UTF-8   Markdown   Prettier ✓   Go Live</text>
</svg>
